<svg xmlns="http://www.w3.org/2000/svg" width="23.339" height="23.382" viewBox="0 0 23.339 23.382">
  <path id="Path_1404" data-name="Path 1404" d="M264.951,655.633v3.143a2.094,2.094,0,0,1-2.284,2.1,20.733,20.733,0,0,1-9.043-3.217,20.428,20.428,0,0,1-6.287-6.287,20.734,20.734,0,0,1-3.217-9.085A2.094,2.094,0,0,1,246.206,640h3.143a2.1,2.1,0,0,1,2.1,1.8,13.445,13.445,0,0,0,.733,2.944,2.1,2.1,0,0,1-.472,2.211l-1.331,1.331a16.764,16.764,0,0,0,6.287,6.287l1.331-1.331a2.1,2.1,0,0,1,2.211-.472,13.445,13.445,0,0,0,2.944.733,2.093,2.093,0,0,1,1.8,2.127Z" transform="translate(-242.863 -638.75)" fill="none" stroke="#785af2" stroke-linecap="round" stroke-linejoin="round" stroke-width="2.5"/>
</svg>
