<svg id="Group_2534" data-name="Group 2534" xmlns="http://www.w3.org/2000/svg" width="71.48" height="71.48" viewBox="0 0 71.48 71.48">
  <g id="Group_2533" data-name="Group 2533">
    <path id="Path_4961" data-name="Path 4961" d="M212.7,157.77v3.249h-3.249v4.874H212.7v14.621h6.5V165.893h4.321l.552-4.874H219.2v-2.843c0-1.316.13-2.014,2.161-2.014h2.713v-4.89h-4.354C214.523,151.272,212.7,153.709,212.7,157.77Z" transform="translate(-180.212 -130.153)" fill="#fff"/>
    <path id="Path_4962" data-name="Path 4962" d="M35.74,0A35.74,35.74,0,1,0,71.48,35.74,35.74,35.74,0,0,0,35.74,0Zm0,68.231A32.491,32.491,0,1,1,68.231,35.74,32.491,32.491,0,0,1,35.74,68.231Z" fill="#fff"/>
  </g>
</svg>
