<svg xmlns="http://www.w3.org/2000/svg" width="23.302" height="27.962" viewBox="0 0 23.302 27.962">
  <g id="Group_2806" data-name="Group 2806" transform="translate(-204 -558)">
    <path id="Path_1402" data-name="Path 1402" d="M215.651,560.33a9.32,9.32,0,0,0-9.321,9.321c0,3.61,2.349,7.112,4.924,9.83a34.416,34.416,0,0,0,3.485,3.185c.354.282.664.517.912.7.248-.184.558-.419.912-.7a34.422,34.422,0,0,0,3.485-3.185c2.575-2.718,4.924-6.221,4.924-9.83a9.32,9.32,0,0,0-9.321-9.321Zm0,24.467-.647.969,0,0-.008-.006-.027-.018-.1-.066c-.083-.057-.2-.141-.352-.249-.3-.217-.725-.532-1.232-.937a36.433,36.433,0,0,1-3.725-3.4C206.894,578.268,204,574.2,204,569.651a11.651,11.651,0,0,1,23.3,0c0,4.546-2.894,8.617-5.562,11.433a36.44,36.44,0,0,1-3.725,3.4c-.507.4-.932.72-1.232.937-.149.108-.269.192-.352.249l-.1.066-.027.018-.008.006h0S216.3,585.767,215.651,584.8Zm0,0,.647.969a1.166,1.166,0,0,1-1.293,0Z" fill="#785af2" fill-rule="evenodd"/>
    <path id="Path_1403" data-name="Path 1403" d="M214.66,566.33a2.33,2.33,0,1,0,2.33,2.33A2.33,2.33,0,0,0,214.66,566.33ZM210,568.66a4.66,4.66,0,1,1,4.66,4.66A4.661,4.661,0,0,1,210,568.66Z" transform="translate(0.991 0.991)" fill="#785af2" fill-rule="evenodd"/>
  </g>
</svg>
