<svg xmlns="http://www.w3.org/2000/svg" width="26.558" height="19.849" viewBox="0 0 26.558 19.849">
  <g id="Group_2553" data-name="Group 2553" transform="translate(-443 -521)">
    <path id="Path_1405" data-name="Path 1405" d="M446.622,523.205a1.165,1.165,0,0,0-1.207,1.1v13.233a1.165,1.165,0,0,0,1.207,1.1h19.315a1.165,1.165,0,0,0,1.207-1.1V524.308a1.165,1.165,0,0,0-1.207-1.1Zm-3.622,1.1A3.483,3.483,0,0,1,446.622,521h19.315a3.483,3.483,0,0,1,3.622,3.308v13.233a3.483,3.483,0,0,1-3.622,3.308H446.622A3.483,3.483,0,0,1,443,537.541Z" transform="translate(0)" fill="#785af2" fill-rule="evenodd"/>
    <path id="Path_1406" data-name="Path 1406" d="M443.219,523.471a1.279,1.279,0,0,1,1.68-.271l11.38,7.276,11.38-7.276a1.279,1.279,0,0,1,1.68.271,1.042,1.042,0,0,1-.3,1.535l-12.072,7.719a1.3,1.3,0,0,1-1.383,0l-12.072-7.719A1.042,1.042,0,0,1,443.219,523.471Z" transform="translate(0 0.205)" fill="#785af2" fill-rule="evenodd"/>
  </g>
</svg>
